<svg xmlns="http://www.w3.org/2000/svg" viewBox="0 0 82.84 82.9"><defs><style>.cls-1{fill:#1e1e1e;}</style></defs><g id="Layer_2" data-name="Layer 2"><g id="Layer_4" data-name="Layer 4"><path class="cls-1" d="M0,35.72a2.17,2.17,0,0,1,2.46-.8,1.25,1.25,0,0,1,.63,1c-.1,1.1.07,1.87,1.45,1.8v7.17l-1.31.34L3,47.87c-1.12.13-2.19.37-3-.66Z"/><path class="cls-1" d="M36.43,82.9c-1.66-.62-1.89-1.15-1.32-3.19a5.13,5.13,0,0,0,1.75,0c.45-.18.74-.76,1.31-1.38H45c0,.92.38,1.61,1.53,1.44.7-.11,1.39-.16,1.49.88s.07,1.72-1,2a4.81,4.81,0,0,0-.51.25Z"/><path class="cls-1" d="M41.57,15.79a25.63,25.63,0,1,1-25.8,25.54A25.51,25.51,0,0,1,41.57,15.79Z"/><path class="cls-1" d="M48,70.72l-1.8.29v6.14H36.74V71L35,70.74c-.15-1,.37-1.49,1.21-1.5,3.45,0,6.91,0,10.36,0C47.43,69.23,47.85,69.77,48,70.72Z"/><path class="cls-1" d="M70.68,47.91a1.35,1.35,0,0,1-1.45-1.51v-10a1.34,1.34,0,0,1,1.52-1.53L71,36.62h6.16v9.49H73C71.11,46.11,71.11,46.11,70.68,47.91Z"/><path class="cls-1" d="M12.06,47.85c-.23-1.66-.23-1.66-2-1.66H5.72V36.71H11.8L12,35c1-.22,1.47.2,1.48,1.08,0,3.53.06,7.07,0,10.6,0,.48-.68.95-1.05,1.42Z"/><path class="cls-1" d="M25.23,66.81l-1.26-1-4,4.16L12.76,63.1l4.42-4.05-1.1-1.46a1.21,1.21,0,0,1,2-.13c2.43,2.4,4.84,4.83,7.25,7.25C26,65.38,26,66.07,25.23,66.81Z"/><path class="cls-1" d="M47.91,12.12c0,1.06-.56,1.41-1.5,1.4-3.34,0-6.68,0-10,0-1,0-1.44-.38-1.54-1.41l1.76-.32V5.67h9.46V9.89C46.08,11.78,46.08,11.78,47.91,12.12Z"/><path class="cls-1" d="M66.79,57.54,65.63,59,70,63.14l-6.79,6.77-4.1-4.35L57.6,66.74a1.23,1.23,0,0,1-.11-2.07l7.15-7.15A1.35,1.35,0,0,1,66.79,57.54Z"/><path class="cls-1" d="M23.75,17.18l1.47-1.11a1.24,1.24,0,0,1,.11,2q-3.6,3.64-7.24,7.25A1.34,1.34,0,0,1,16,25.29l1.1-1.48-4.26-4.07,6.35-6.8Z"/><path class="cls-1" d="M63.13,12.9l6.95,6.63-4.46,4.22,1.11,1.46a1.21,1.21,0,0,1-2,.13c-2.43-2.4-4.84-4.82-7.26-7.25a1.35,1.35,0,0,1,0-2.08l1.37,1Z"/><path class="cls-1" d="M63.74,73.23l1.89-2.08L65,70.22,70.09,65l1.23.8,1.75-2.41a11.9,11.9,0,0,1,1.51,2.09A1.66,1.66,0,0,1,74.31,67c-2.39,2.49-4.85,4.91-7.3,7.34a1.24,1.24,0,0,1-1.85.09Z"/><path class="cls-1" d="M45,4.55H38.54c-.19,0-.52,0-.56-.12-.43-1.2-1.53-1.11-2.47-1.41a1.42,1.42,0,0,1-.69-1.18A2.54,2.54,0,0,1,35.51.31,1.9,1.9,0,0,1,36.78,0C39.9,0,43,0,46.16,0c1.59,0,2.27,1,1.7,2.53-.1.27-.69.5-1,.49C45.81,3,45,3.17,45,4.55Z"/><path class="cls-1" d="M78.32,45V37.8c1.1,0,1.57-.55,1.39-1.62-.13-.72,0-1.27.91-1.38s1.67-.06,2,.92a5,5,0,0,1,.21,1.44c0,2.93,0,5.86,0,8.79,0,1.64-.93,2.38-2.52,1.94a1.27,1.27,0,0,1-.59-1.07C79.8,45.76,79.53,45.06,78.32,45Z"/><path class="cls-1" d="M73.1,19.23,71.35,17l-1.18.79c-1.77-1.7-3.48-3.37-5.25-5.08l.86-1.21c-.49-.36-1-.76-1.52-1.09-.8-.52-.69-.94,0-1.47,1.7-1.28,2-1.29,3.46.2L73.52,15c1.64,1.65,1.64,1.7.22,3.5C73.57,18.68,73.38,18.9,73.1,19.23Z"/><path class="cls-1" d="M9.8,63.63l1.72,2.11.92-.66,5.22,5.26-.62.91,2.11,1.85c0,.13,0,.17-.08.2-2.19,2-2.34,2-4.41-.08l-5.59-5.6c-1.41-1.41-1.42-1.68,0-3.2C9.25,64.19,9.48,64,9.8,63.63Z"/><path class="cls-1" d="M19,9.53l-2.1,1.79.93,1.36-5.1,5.23L11.48,17,9.8,19.23c-.14-.06-.22-.08-.26-.13-2-2.38-2-2.38.21-4.59l5.36-5.36c1.49-1.48,1.76-1.49,3.3-.09C18.56,9.19,18.74,9.3,19,9.53Z"/><path class="cls-1" d="M47.14,71.85H49v6.3H47.14Z"/><path class="cls-1" d="M71.82,35.65V33.83h6.29v1.82Z"/><path class="cls-1" d="M78.13,47.19v1.67H71.82V47.19Z"/><path class="cls-1" d="M14.79,57.5l1.06,1.14-4.79,4.52-.81-1Z"/><path class="cls-1" d="M62.28,72.76,57.49,68l1.26-.84,4.66,4.46Z"/><path class="cls-1" d="M33.94,71.83h1.71v6.29H33.94Z"/><path class="cls-1" d="M34,4.68h1.7v6.25H34Z"/><path class="cls-1" d="M10.92,35.68H4.69V33.83h6.23Z"/><path class="cls-1" d="M4.66,48.84V47.18H11v1.66Z"/><path class="cls-1" d="M25.19,68.07l-4.55,4.77-1.05-1.22L24.21,67Z"/><path class="cls-1" d="M25.34,14.77l-1.19,1.12-4.85-4.6,1.38-.93Z"/><path class="cls-1" d="M68.05,25.12l-1.2-1,4.6-4.66c1.23,1.25,1.19,1.35,0,2.51s-2.08,2.29-3.11,3.43Z"/><path class="cls-1" d="M15.88,24.06l-1,1.09L10,20.54l1.1-.92Z"/><path class="cls-1" d="M66.81,58.9l1.27-1.21,4.51,4.67-1.14.71Z"/><path class="cls-1" d="M47.22,4.68h1.62V11H47.22Z"/><path class="cls-1" d="M58.75,15.89l-1-1.1,4.67-4.56.84.88Z"/></g></g></svg>